# CAD Exchanger 3.7.1 (cadexchanger.com)
# Object Count: 1
mtllib cube.mtl
g cube
v 0.000000 0.000000 -50.000000
v 0.000000 0.000000 0.000000
v 0.000000 50.000000 0.000000
v 0.000000 50.000000 -50.000000
v 50.000000 0.000000 0.000000
v 50.000000 50.000000 0.000000
v 50.000000 0.000000 -50.000000
v 50.000000 50.000000 -50.000000
vn -1.000000 0.000000 -0.000000
vn -1.000000 0.000000 -0.000000
vn -1.000000 0.000000 -0.000000
vn -1.000000 0.000000 -0.000000
vn -0.000000 -0.000000 1.000000
vn -0.000000 -0.000000 1.000000
vn -0.000000 -0.000000 1.000000
vn -0.000000 -0.000000 1.000000
vn 1.000000 -0.000000 -0.000000
vn 1.000000 -0.000000 -0.000000
vn 1.000000 -0.000000 -0.000000
vn 1.000000 -0.000000 -0.000000
vn -0.000000 -0.000000 -1.000000
vn -0.000000 -0.000000 -1.000000
vn -0.000000 -0.000000 -1.000000
vn -0.000000 -0.000000 -1.000000
vn -0.000000 1.000000 -0.000000
vn -0.000000 1.000000 -0.000000
vn -0.000000 1.000000 -0.000000
vn -0.000000 1.000000 -0.000000
vn 0.000000 -1.000000 0.000000
vn 0.000000 -1.000000 0.000000
vn 0.000000 -1.000000 0.000000
vn 0.000000 -1.000000 0.000000
usemtl Material_1
f 3//3 4//2 1//1
f 2//4 3//3 1//1
f 6//7 3//6 2//5
f 5//8 6//7 2//5
f 8//11 6//10 5//9
f 7//12 8//11 5//9
f 4//15 8//14 7//13
f 1//16 4//15 7//13
f 6//19 8//18 4//17
f 3//20 6//19 4//17
f 7//23 2//21 1//22
f 5//24 2//21 7//23
